<svg xmlns="http://www.w3.org/2000/svg" width="100%" height="100%" viewBox="0 0 256 256"><path fill="#6e1776" d="M0,0 h16 v16 h-16Z M32,0 h16 v16 h-16Z M80,0 h16 v16 h-16Z M112,0 h16 v16 h-16Z M128,0 h16 v16 h-16Z M160,0 h16 v16 h-16Z M192,0 h16 v16 h-16Z M240,0 h16 v16 h-16Z"/><path fill="#1bfc07" d="M16,16 h16 v16 h-16Z M48,16 h16 v16 h-16Z M64,16 h16 v16 h-16Z M96,16 h16 v16 h-16Z M144,16 h16 v16 h-16Z M176,16 h16 v16 h-16Z M208,16 h16 v16 h-16Z M224,16 h16 v16 h-16Z"/><path fill="#7892f1" d="M16,32 h16 v16 h-16Z M48,32 h16 v16 h-16Z M64,32 h16 v16 h-16Z M96,32 h16 v16 h-16Z M144,32 h16 v16 h-16Z M176,32 h16 v16 h-16Z M208,32 h16 v16 h-16Z M224,32 h16 v16 h-16Z"/><path fill="#957413" d="M0,48 h16 v16 h-16Z M32,48 h16 v16 h-16Z M80,48 h16 v16 h-16Z M112,48 h16 v16 h-16Z M128,48 h16 v16 h-16Z M160,48 h16 v16 h-16Z M192,48 h16 v16 h-16Z M240,48 h16 v16 h-16Z"/><path fill="#4fb0f2" d="M16,64 h16 v16 h-16Z M48,64 h16 v16 h-16Z M64,64 h16 v16 h-16Z M96,64 h16 v16 h-16Z M144,64 h16 v16 h-16Z M176,64 h16 v16 h-16Z M208,64 h16 v16 h-16Z M224,64 h16 v16 h-16Z"/><path fill="#db2e95" d="M0,80 h16 v16 h-16Z M32,80 h16 v16 h-16Z M80,80 h16 v16 h-16Z M112,80 h16 v16 h-16Z M128,80 h16 v16 h-16Z M160,80 h16 v16 h-16Z M192,80 h16 v16 h-16Z M240,80 h16 v16 h-16Z"/><path fill="#60240d" d="M0,96 h16 v16 h-16Z M32,96 h16 v16 h-16Z M80,96 h16 v16 h-16Z M112,96 h16 v16 h-16Z M128,96 h16 v16 h-16Z M160,96 h16 v16 h-16Z M192,96 h16 v16 h-16Z M240,96 h16 v16 h-16Z"/><path fill="#21aa63" d="M0,112 h16 v16 h-16Z M32,112 h16 v16 h-16Z M80,112 h16 v16 h-16Z M112,112 h16 v16 h-16Z M128,112 h16 v16 h-16Z M160,112 h16 v16 h-16Z M192,112 h16 v16 h-16Z M240,112 h16 v16 h-16Z"/><path fill="#ded800" d="M16,128 h16 v16 h-16Z M48,128 h16 v16 h-16Z M64,128 h16 v16 h-16Z M96,128 h16 v16 h-16Z M144,128 h16 v16 h-16Z M176,128 h16 v16 h-16Z M208,128 h16 v16 h-16Z M224,128 h16 v16 h-16Z"/><path fill="#b33f15" d="M0,144 h16 v16 h-16Z M32,144 h16 v16 h-16Z M80,144 h16 v16 h-16Z M112,144 h16 v16 h-16Z M128,144 h16 v16 h-16Z M160,144 h16 v16 h-16Z M192,144 h16 v16 h-16Z M240,144 h16 v16 h-16Z"/><path fill="#8de9d9" d="M16,160 h16 v16 h-16Z M48,160 h16 v16 h-16Z M64,160 h16 v16 h-16Z M96,160 h16 v16 h-16Z M144,160 h16 v16 h-16Z M176,160 h16 v16 h-16Z M208,160 h16 v16 h-16Z M224,160 h16 v16 h-16Z"/><path fill="#6a735c" d="M0,176 h16 v16 h-16Z M32,176 h16 v16 h-16Z M80,176 h16 v16 h-16Z M112,176 h16 v16 h-16Z M128,176 h16 v16 h-16Z M160,176 h16 v16 h-16Z M192,176 h16 v16 h-16Z M240,176 h16 v16 h-16Z"/><path fill="#a42f85" d="M0,192 h16 v16 h-16Z M32,192 h16 v16 h-16Z M80,192 h16 v16 h-16Z M112,192 h16 v16 h-16Z M128,192 h16 v16 h-16Z M160,192 h16 v16 h-16Z M192,192 h16 v16 h-16Z M240,192 h16 v16 h-16Z"/><path fill="#5c037a" d="M16,208 h16 v16 h-16Z M48,208 h16 v16 h-16Z M64,208 h16 v16 h-16Z M96,208 h16 v16 h-16Z M144,208 h16 v16 h-16Z M176,208 h16 v16 h-16Z M208,208 h16 v16 h-16Z M224,208 h16 v16 h-16Z"/><path fill="#d389ef" d="M0,224 h16 v16 h-16Z M32,224 h16 v16 h-16Z M80,224 h16 v16 h-16Z M112,224 h16 v16 h-16Z M128,224 h16 v16 h-16Z M160,224 h16 v16 h-16Z M192,224 h16 v16 h-16Z M240,224 h16 v16 h-16Z"/><path fill="#79e6e5" d="M0,240 h16 v16 h-16Z M32,240 h16 v16 h-16Z M80,240 h16 v16 h-16Z M112,240 h16 v16 h-16Z M128,240 h16 v16 h-16Z M160,240 h16 v16 h-16Z M192,240 h16 v16 h-16Z M240,240 h16 v16 h-16Z"/></svg>